<svg xmlns:svg="http://www.w3.org/2000/svg" xmlns="http://www.w3.org/2000/svg" xml:space="preserve" version="1" width="561.9" height="561.9" viewBox="0 0 105.4 105.3"><circle cx="52.7" cy="52.6" r="50.8" style="fill-opacity:0.5;fill:#000;stroke-width:3.8;stroke:#fff"/><polygon points="6 47.7 22 47.7 39.4 62.8 39.4 13.8 39.4 13.8 22.2 28.6 6 28.6 " transform="translate(8.2539409,14.061555)" style="fill:none;stroke-linejoin:round;stroke-width:3.8;stroke:#fff"/><path d="m53.3 71.3c8-6.3 14.6-12.7 14.6-18.7l0 0c0-6-6.6-12.4-14.6-18.8l0 0c6.3 11.7 6.3 25.8 0 37.5m17.5-18.7c0 6.3-5.2 12.2-12.3 18.2l0 0c12-6.1 22.2-12.5 22.2-18.2l0 0c0-5.7-10.3-12.1-22.2-18.2l0 0c7.1 6 12.3 11.9 12.3 18.2m12.8 0c0 5.6-6.3 10.9-15.2 16.1l0 0c5.8-2.3 11.2-4.6 15.4-7l0 0c6.4-3.5 9.7-6.6 9.7-9.2l0 0c0-5-11.2-10.6-25.1-16.1l0 0c9 5.2 15.2 10.5 15.2 16.1" fill="#fff"/></svg>
